<?xml version="1.0" encoding="UTF-8" standalone="no"?>
<svg
   xmlns:dc="http://purl.org/dc/elements/1.1/"
   xmlns:cc="http://creativecommons.org/ns#"
   xmlns:rdf="http://www.w3.org/1999/02/22-rdf-syntax-ns#"
   xmlns:svg="http://www.w3.org/2000/svg"
   xmlns="http://www.w3.org/2000/svg"
   version="1.1"
   id="Capa_1"
   x="0px"
   y="0px"
   viewBox="0 0 19.999999 19.999999"
   xml:space="preserve"
   width="20"
   height="20"><metadata
   id="metadata940"><rdf:RDF><cc:Work
       rdf:about=""><dc:format>image/svg+xml</dc:format><dc:type
         rdf:resource="http://purl.org/dc/dcmitype/StillImage" /><dc:title></dc:title></cc:Work></rdf:RDF></metadata><defs
   id="defs938">
	
</defs>
<path
   id="path901"
   d="m 17.335919,9.8271454 c 0.272807,-0.300034 0.246463,-0.759896 -0.05882,-1.026865 L 10.551309,2.9151825 C 10.246026,2.6482132 9.7565821,2.6538059 9.4577257,2.9277889 l -6.748652,6.1862615 c -0.2988564,0.273984 -0.3135245,0.733258 -0.032476,1.0253926 l 0.1691983,0.176214 c 0.2807053,0.292135 0.7344353,0.326966 1.0127859,0.07756 L 4.3629392,9.9415484 v 6.6125176 c 0,0.405702 0.3287322,0.734141 0.7341409,0.734141 h 2.6306435 c 0.4054086,0 0.7341409,-0.328439 0.7341409,-0.734141 v -4.626095 h 3.3554135 v 4.626094 c -0.0058,0.405408 0.284238,0.733846 0.689647,0.733846 h 2.787822 c 0.405408,0 0.734141,-0.328438 0.734141,-0.73414 v -6.519114 c 0,0 0.139322,0.122055 0.31117,0.273102 0.171553,0.150752 0.531878,0.02988 0.804686,-0.270453 z"
   style="fill:none;stroke:#fafafa;stroke-width:1;stroke-miterlimit:4;stroke-dasharray:none;stroke-opacity:1" />
<g
   id="g905"
   transform="translate(0,-286.77301)">
</g>
<g
   id="g907"
   transform="translate(0,-286.77301)">
</g>
<g
   id="g909"
   transform="translate(0,-286.77301)">
</g>
<g
   id="g911"
   transform="translate(0,-286.77301)">
</g>
<g
   id="g913"
   transform="translate(0,-286.77301)">
</g>
<g
   id="g915"
   transform="translate(0,-286.77301)">
</g>
<g
   id="g917"
   transform="translate(0,-286.77301)">
</g>
<g
   id="g919"
   transform="translate(0,-286.77301)">
</g>
<g
   id="g921"
   transform="translate(0,-286.77301)">
</g>
<g
   id="g923"
   transform="translate(0,-286.77301)">
</g>
<g
   id="g925"
   transform="translate(0,-286.77301)">
</g>
<g
   id="g927"
   transform="translate(0,-286.77301)">
</g>
<g
   id="g929"
   transform="translate(0,-286.77301)">
</g>
<g
   id="g931"
   transform="translate(0,-286.77301)">
</g>
<g
   id="g933"
   transform="translate(0,-286.77301)">
</g>
</svg>