<?xml version="1.0" encoding="UTF-8" standalone="no"?>
<svg
   xmlns:dc="http://purl.org/dc/elements/1.1/"
   xmlns:cc="http://creativecommons.org/ns#"
   xmlns:rdf="http://www.w3.org/1999/02/22-rdf-syntax-ns#"
   xmlns:svg="http://www.w3.org/2000/svg"
   xmlns="http://www.w3.org/2000/svg"
   version="1.1"
   id="svg2"
   width="16"
   height="16"
   viewBox="0 0 16 16">
  <metadata
     id="metadata8">
    <rdf:RDF>
      <cc:Work
         rdf:about="">
        <dc:format>image/svg+xml</dc:format>
        <dc:type
           rdf:resource="http://purl.org/dc/dcmitype/StillImage" />
        <dc:title></dc:title>
      </cc:Work>
    </rdf:RDF>
  </metadata>
  <defs
     id="defs6" />
  <path
     d="M 0,0 V 1 2 3 5 H 1 3 V 4 2 H 1 V 1 H 3 V 0 Z m 13,0 v 3 h 2 v 2 h 1 V 3 2 0 H 15 V 2 H 14 V 0 Z M 7.9726562,0.375 A 2.125,2.125 0 0 0 5.875,2.5 2.125,2.125 0 0 0 8,4.625 2.125,2.125 0 0 0 10.125,2.5 2.125,2.125 0 0 0 8,0.375 a 2.125,2.125 0 0 0 -0.027344,0 z M 1,3 H 2 V 4 H 1 Z M 4.9980469,5 C 4.6082815,5.0001683 4.2393627,5.2303418 4.078125,5.6132812 L 2.6992188,8.8867188 0.29296875,11.291016 c -0.39173716,0.391737 -0.39173716,1.024278 0,1.416015 0.39173716,0.391737 1.02427845,0.391737 1.41601565,0 l 2.0859375,-2.08789 c 0.2488906,-0.09281 0.4625264,-0.2777 0.5742187,-0.542969 l 0.023437,-0.05469 0.1445313,-0.1445309 C 4.7666368,9.6474257 4.8441305,9.3384938 4.8046875,9.0410156 L 5.078125,8.390625 C 5.1185853,8.4866023 5.1832186,8.5667402 5.25,8.6445312 v 2.7285158 c -0.5614194,0.576884 -1.2774519,1.469607 -1.7480469,1.595703 -0.8001992,0.214413 -1.5,0.671573 -1.5,1.5 0,0.828427 0.6715729,1.5 1.5,1.5 0.8284271,0 1.5,-0.671573 1.5,-1.5 0,-0.401031 0.8224252,-1.653445 1.4453125,-1.71875 h 2.0117188 l 0.00195,0.002 c 0.2438035,0.191425 0.4542744,0.338953 0.5742187,0.408203 l 0.4628907,0.267578 H 9 c -0.554,0 -2.9960938,0.516313 -2.9960938,1.070313 10e-8,0.554 -0.00329,1.50198 2.9746094,1.460937 0,0 3.0214844,-0.221661 4.0214844,-0.353515 1,-0.131854 1,-0.623735 1,-1.177735 0,-0.01873 -0.0088,-0.03426 -0.0098,-0.05273 0.03019,-0.372649 -0.143811,-0.745377 -0.4902,-0.945363 L 10.75,11.841797 V 8.6445312 c 0.06678,-0.077791 0.131415,-0.1579289 0.171875,-0.2539062 l 0.273437,0.6503906 c -0.03944,0.2974781 0.03805,0.6064101 0.267579,0.8359375 l 0.144531,0.1445309 0.02344,0.05469 c 0.111693,0.265269 0.325328,0.450157 0.574219,0.542969 l 2.085938,2.08789 c 0.391737,0.391737 1.024278,0.391737 1.416015,0 0.391737,-0.391737 0.391737,-1.024278 0,-1.416015 L 13.300781,8.8867188 11.921875,5.6132812 C 11.706891,5.1026953 11.123867,4.8650945 10.613281,5.0800781 c -0.04238,0.017843 -0.07086,0.051544 -0.109375,0.074219 C 10.354024,5.0648421 10.187934,5 10,5 H 6 C 5.8120656,5 5.6459763,5.0648421 5.4960938,5.1542969 5.4575766,5.1316222 5.4290945,5.0979206 5.3867188,5.0800781 5.2590722,5.0263322 5.1279687,4.9999439 4.9980469,5 Z"
     style="fill:#fafafa;fill-opacity:1"
     id="rect16" />
</svg>
