<?xml version="1.0" encoding="UTF-8" standalone="no"?>
<svg
   xmlns:dc="http://purl.org/dc/elements/1.1/"
   xmlns:cc="http://creativecommons.org/ns#"
   xmlns:rdf="http://www.w3.org/1999/02/22-rdf-syntax-ns#"
   xmlns:svg="http://www.w3.org/2000/svg"
   xmlns="http://www.w3.org/2000/svg"
   xmlns:sodipodi="http://sodipodi.sourceforge.net/DTD/sodipodi-0.dtd"
   xmlns:inkscape="http://www.inkscape.org/namespaces/inkscape"
   height="32"
   width="32"
   id="svg2"
   version="1.1"
   inkscape:version="0.91 r"
   sodipodi:docname="bitbucket.svg">
  <metadata
     id="metadata10">
    <rdf:RDF>
      <cc:Work
         rdf:about="">
        <dc:format>image/svg+xml</dc:format>
        <dc:type
           rdf:resource="http://purl.org/dc/dcmitype/StillImage" />
        <dc:title></dc:title>
      </cc:Work>
    </rdf:RDF>
  </metadata>
  <defs
     id="defs8" />
  <sodipodi:namedview
     pagecolor="#ffffff"
     bordercolor="#666666"
     borderopacity="1"
     objecttolerance="10"
     gridtolerance="10"
     guidetolerance="10"
     inkscape:pageopacity="0"
     inkscape:pageshadow="2"
     inkscape:window-width="1366"
     inkscape:window-height="715"
     id="namedview6"
     showgrid="false"
     inkscape:snap-bbox="true"
     inkscape:bbox-nodes="true"
     inkscape:bbox-paths="true"
     inkscape:snap-bbox-edge-midpoints="true"
     inkscape:snap-bbox-midpoints="true"
     inkscape:snap-page="true"
     inkscape:zoom="17"
     inkscape:cx="16"
     inkscape:cy="16"
     inkscape:window-x="0"
     inkscape:window-y="26"
     inkscape:window-maximized="1"
     inkscape:current-layer="svg2" />
  <path
     d="m 2.1439995,4.6079999 q 0,-1.92 4.064,-3.264 Q 10.272,0 15.999999,0 q 5.76,0 9.808,1.3439999 4.048001,1.344 4.048001,3.264 0,0.384 -2.304001,14.0800001 Q 27.263999,20.16 24,21.536001 20.735999,22.912 15.999999,22.912 q -4.736,0 -7.9999995,-1.375999 -3.264,-1.376001 -3.52,-2.848001 -2.336,-13.248 -2.336,-14.0800001 z m 3.4240001,18.5919991 0,-0.127999 q 0,-0.544 0.4799999,-0.544 0.1919999,0 0.384,0.159999 1.504,1.184 3.9040005,1.856 2.4,0.672001 4.032,0.736001 l 1.631999,0.096 q 0.256001,0 0.687999,-0.016 0.432003,-0.016 1.680001,-0.159999 1.248001,-0.144001 2.384,-0.4 Q 21.887999,24.544 23.263999,24 24.64,23.456 25.6,22.688 l 0.352,-0.16 q 0.512,0 0.512,0.544001 0,0.064 -0.03201,0.127999 -0.703999,3.872001 -0.960001,5.152001 -0.351999,1.568 -3.071999,2.608 Q 19.679999,32 15.999999,32 12.32,32 9.5999994,30.96 6.8799995,29.92 6.5599995,28.352 5.9519995,25.312001 5.5679996,23.199999 Z M 7.1359995,4.1279999 q 0,0.7680001 2.6080001,1.3280001 2.6080004,0.56 6.2559994,0.56 3.68,0 6.288,-0.544 2.607999,-0.544 2.607999,-1.312 0,-0.8 -2.607999,-1.3600001 Q 19.679999,2.24 15.999999,2.24 12.32,2.24 9.7279995,2.784 q -2.592,0.544 -2.592,1.3439999 z M 11.584,15.424001 q 0,1.823998 1.296,3.119999 1.296001,1.296 3.119999,1.296 1.824,0 3.120001,-1.296 1.295999,-1.296001 1.295999,-3.119999 Q 20.415999,13.6 19.12,12.303999 17.823999,11.008 15.999999,11.008 14.176,11.008 12.88,12.303999 11.584,13.6 11.584,15.424001 Z m 2.207999,0 q 0,0.895999 0.640001,1.551999 0.64,0.656 1.567999,0.656 0.928,0 1.568,-0.656 0.64,-0.656 0.64,-1.551999 0,-0.896002 -0.64,-1.552001 -0.64,-0.656 -1.568001,-0.656 -0.927999,0 -1.567999,0.656 -0.64,0.655999 -0.64,1.552001 z"
     id="path4"
     inkscape:connector-curvature="0"
     style="fill:#f9f9f9" />
</svg>
