<?xml version="1.0" encoding="UTF-8" standalone="no"?>
<svg
   xmlns:dc="http://purl.org/dc/elements/1.1/"
   xmlns:cc="http://creativecommons.org/ns#"
   xmlns:rdf="http://www.w3.org/1999/02/22-rdf-syntax-ns#"
   xmlns:svg="http://www.w3.org/2000/svg"
   xmlns="http://www.w3.org/2000/svg"
   xmlns:sodipodi="http://sodipodi.sourceforge.net/DTD/sodipodi-0.dtd"
   xmlns:inkscape="http://www.inkscape.org/namespaces/inkscape"
   height="16"
   width="16"
   id="svg2"
   version="1.1"
   inkscape:version="0.91 r"
   sodipodi:docname="github.svg">
  <metadata
     id="metadata10">
    <rdf:RDF>
      <cc:Work
         rdf:about="">
        <dc:format>image/svg+xml</dc:format>
        <dc:type
           rdf:resource="http://purl.org/dc/dcmitype/StillImage" />
      </cc:Work>
    </rdf:RDF>
  </metadata>
  <defs
     id="defs8" />
  <sodipodi:namedview
     pagecolor="#ffffff"
     bordercolor="#666666"
     borderopacity="1"
     objecttolerance="10"
     gridtolerance="10"
     guidetolerance="10"
     inkscape:pageopacity="0"
     inkscape:pageshadow="2"
     inkscape:window-width="640"
     inkscape:window-height="480"
     id="namedview6"
     showgrid="false"
     inkscape:zoom="18.956055"
     inkscape:cx="8"
     inkscape:cy="8"
     inkscape:window-x="0"
     inkscape:window-y="26"
     inkscape:window-maximized="0"
     inkscape:current-layer="svg2" />
  <path
     d="M8 0C3.58 0 0 3.58 0 8c0 3.54 2.29 6.53 5.47 7.59 0.4 0.07 0.55-0.17 0.55-0.38 0-0.19-0.01-0.82-0.01-1.49-2.01 0.37-2.53-0.49-2.69-0.94-0.09-0.23-0.48-0.94-0.82-1.13-0.28-0.15-0.68-0.52-0.01-0.53 0.63-0.01 1.08 0.58 1.23 0.82 0.72 1.21 1.87 0.87 2.33 0.66 0.07-0.52 0.28-0.87 0.51-1.07-1.78-0.2-3.64-0.89-3.64-3.95 0-0.87 0.31-1.59 0.82-2.15-0.08-0.2-0.36-1.02 0.08-2.12 0 0 0.67-0.21 2.2 0.82 0.64-0.18 1.32-0.27 2-0.27 0.68 0 1.36 0.09 2 0.27 1.53-1.04 2.2-0.82 2.2-0.82 0.44 1.1 0.16 1.92 0.08 2.12 0.51 0.56 0.82 1.27 0.82 2.15 0 3.07-1.87 3.75-3.65 3.95 0.29 0.25 0.54 0.73 0.54 1.48 0 1.07-0.01 1.93-0.01 2.2 0 0.21 0.15 0.46 0.55 0.38C13.71 14.53 16 11.53 16 8 16 3.58 12.42 0 8 0z"
     id="path4"
     style="fill:#f9f9f9" />
</svg>
