<?xml version="1.0" encoding="UTF-8" standalone="no"?>
<svg
   xmlns:dc="http://purl.org/dc/elements/1.1/"
   xmlns:cc="http://creativecommons.org/ns#"
   xmlns:rdf="http://www.w3.org/1999/02/22-rdf-syntax-ns#"
   xmlns:svg="http://www.w3.org/2000/svg"
   xmlns="http://www.w3.org/2000/svg"
   version="1.1"
   id="Camada_1"
   x="0px"
   y="0px"
   viewBox="0 0 31.5 31.5"
   xml:space="preserve"
   width="31.5"
   height="31.5"><metadata
   id="metadata34"><rdf:RDF><cc:Work
       rdf:about=""><dc:format>image/svg+xml</dc:format><dc:type
         rdf:resource="http://purl.org/dc/dcmitype/StillImage" /><dc:title></dc:title></cc:Work></rdf:RDF></metadata><defs
   id="defs32" />
<style
   type="text/css"
   id="style23">
	.st0{fill:#27BCE6;}
	.st1{fill:#E83D6C;}
</style>

<g
   id="g837"><path
     style="fill:#27bce6;fill-opacity:1"
     id="path25"
     d="M 15.800781,0.04980519 C 7.1007813,0.04980519 0,7.0509774 0,15.750977 c 0,8.7 7.0992188,15.699218 15.699219,15.699218 8.6,0 15.800781,-7.099218 15.800781,-15.699218 0,-1.8 -0.200781,-3.49961 -0.800781,-5.09961 l -13.398438,5.5 v 4.09961 L 27.5,16.151367 c -0.2,6.3 -5.399219,11.398438 -11.699219,11.398438 -6.3999998,0 -11.7011716,-5.298828 -11.7011716,-11.798828 0,-6.4999996 5.2011718,-11.8007812 11.7011716,-11.8007812 2.7,0 4.498828,0.6 6.298828,1.9999996 l 4.09961,-1.6992184 c -2.3,-2.5 -5.998438,-4.20117181 -10.398438,-4.20117181 z" /><polygon
     transform="translate(-0.5,-4.1494136)"
     style="fill:#e83d6c"
     id="polygon27"
     points="32,8.2 17.8,14.1 17.8,18.2 32,12.4 "
     class="st1" /></g>
</svg>