<?xml version="1.0" encoding="UTF-8" standalone="no"?>
<svg
   xmlns:dc="http://purl.org/dc/elements/1.1/"
   xmlns:cc="http://creativecommons.org/ns#"
   xmlns:rdf="http://www.w3.org/1999/02/22-rdf-syntax-ns#"
   xmlns:svg="http://www.w3.org/2000/svg"
   xmlns="http://www.w3.org/2000/svg"
   height="31.5"
   width="31.5"
   xml:space="preserve"
   viewBox="0 0 31.5 31.5"
   y="0px"
   x="0px"
   id="Camada_1"
   version="1.1"><metadata
   id="metadata34"><rdf:RDF><cc:Work
       rdf:about=""><dc:format>image/svg+xml</dc:format><dc:type
         rdf:resource="http://purl.org/dc/dcmitype/StillImage" /><dc:title></dc:title></cc:Work></rdf:RDF></metadata><defs
   id="defs32" />
<style
   id="style23"
   type="text/css">
	.st0{fill:#27BCE6;}
	.st1{fill:#E83D6C;}
</style>

<g
   transform="translate(0,-0.04980418)"
   id="g847"><path
     d="M 15.800781,0.09960937 C 7.1007813,0.09960937 0,7.1007816 0,15.800781 c 0,8.7 7.0992188,15.699218 15.699219,15.699218 8.6,0 15.800781,-7.099218 15.800781,-15.699218 0,-1.8 -0.200781,-3.49961 -0.800781,-5.09961 l -13.398438,5.5 v 4.09961 L 27.5,16.201171 c -0.2,6.3 -5.399219,11.398438 -11.699219,11.398438 -6.3999998,0 -11.7011716,-5.298828 -11.7011716,-11.798828 C 4.0996094,9.3007816 9.3007812,4 15.800781,4 c 2.7,0 4.498828,0.6 6.298828,1.9999996 l 4.09961,-1.6992184 c -2.3,-2.5 -5.998438,-4.20117183 -10.398438,-4.20117183 z"
     id="path25"
     style="fill:#fafafa;fill-opacity:1" /><polygon
     class="st1"
     points="17.8,18.2 32,12.4 32,8.2 17.8,14.1 "
     id="polygon27"
     style="fill:#e83d6c"
     transform="translate(-0.5,-4.0996094)" /></g>
</svg>