<?xml version="1.0" encoding="UTF-8" standalone="no"?>
<!-- Created with Inkscape (http://www.inkscape.org/) -->

<svg
   xmlns:dc="http://purl.org/dc/elements/1.1/"
   xmlns:cc="http://creativecommons.org/ns#"
   xmlns:rdf="http://www.w3.org/1999/02/22-rdf-syntax-ns#"
   xmlns:svg="http://www.w3.org/2000/svg"
   xmlns="http://www.w3.org/2000/svg"
   xmlns:sodipodi="http://sodipodi.sourceforge.net/DTD/sodipodi-0.dtd"
   xmlns:inkscape="http://www.inkscape.org/namespaces/inkscape"
   id="svg2"
   version="1.1"
   inkscape:version="0.91 r"
   width="16"
   height="16"
   viewBox="0 0 16 16"
   sodipodi:docname="hulkshare.svg">
  <metadata
     id="metadata8">
    <rdf:RDF>
      <cc:Work
         rdf:about="">
        <dc:format>image/svg+xml</dc:format>
        <dc:type
           rdf:resource="http://purl.org/dc/dcmitype/StillImage" />
        <dc:title></dc:title>
      </cc:Work>
    </rdf:RDF>
  </metadata>
  <defs
     id="defs6" />
  <sodipodi:namedview
     pagecolor="#ffffff"
     bordercolor="#666666"
     borderopacity="1"
     objecttolerance="10"
     gridtolerance="10"
     guidetolerance="10"
     inkscape:pageopacity="0"
     inkscape:pageshadow="2"
     inkscape:window-width="1366"
     inkscape:window-height="715"
     id="namedview4"
     showgrid="true"
     fit-margin-top="0"
     fit-margin-left="0"
     fit-margin-right="0"
     fit-margin-bottom="0"
     inkscape:snap-bbox="true"
     inkscape:bbox-paths="true"
     inkscape:bbox-nodes="true"
     inkscape:snap-bbox-edge-midpoints="true"
     inkscape:snap-bbox-midpoints="true"
     inkscape:object-paths="true"
     inkscape:snap-intersection-paths="true"
     inkscape:object-nodes="true"
     inkscape:snap-smooth-nodes="true"
     inkscape:snap-midpoints="true"
     showguides="true"
     inkscape:snap-page="true"
     inkscape:zoom="34"
     inkscape:cx="8"
     inkscape:cy="8"
     inkscape:window-x="0"
     inkscape:window-y="26"
     inkscape:window-maximized="1"
     inkscape:current-layer="svg2">
    <inkscape:grid
       type="xygrid"
       id="grid4183" />
  </sodipodi:namedview>
  <path
     id="path3338"
     style="fill:#8de02e;fill-opacity:1"
     d="M 5.7538354,15.934991 C 5.4376629,15.817488 5.2724689,15.677252 5.1276719,15.403438 L 5,15.162007 5.0144876,7.9374343 c 0,0 0.012955,-6.0543586 0.014487,-7.04968356 0,-0.1319285 0.1527192,-0.4056495 0.1527192,-0.4056495 C 5.4154294,0.12891874 5.7067419,8.1523961e-4 6.2779864,7.2396111e-6 6.8950249,-8.9276039e-4 7.2002824,0.07743974 7.4183379,0.51501774 l 0.136416,0.3665275 0,7.11144456 0,7.1114452 -0.144145,0.289269 c -0.1993455,0.40003 -0.50251,0.575469 -1.041345,0.602612 -0.257586,0.01297 -0.4732935,-0.0085 -0.6154285,-0.06135 z M 1.5994693,13.625196 C 1.3471472,13.491937 1.1413207,13.227555 1.0610122,12.933552 1.0194713,12.781473 1.0002616,11.284315 1.0000494,8.1822497 0.99973853,3.1895726 0.99303226,3.2920204 1.3421982,2.9317721 1.4517618,2.8187326 1.6335157,2.7116216 1.7993423,2.6623806 c 0.7021578,-0.2085195 1.3778633,0.00935 1.6434221,0.5298831 0.1078138,0.2113351 0.1105107,0.3335762 0.1105107,5.009721 l 0,4.7930973 -0.1602385,0.252671 c -0.2317158,0.365377 -0.5208471,0.491406 -1.1201773,0.488266 -0.3537739,-0.0018 -0.5183482,-0.02894 -0.67339,-0.110823 z m 7.9428712,0.0942 C 9.278,13.579791 9.078052,13.314569 9,13 8.90148,12.60295 8.945101,3.5258606 9.04642,3.3409757 9.198586,3.0633021 9.4661665,2.8385641 9.742216,2.7565846 c 0.702158,-0.2085195 1.377863,0.00935 1.643422,0.5298831 0.107814,0.2113351 0.110511,0.3335762 0.110511,5.009721 l 0,4.7930973 -0.160239,0.252675 c -0.231715,0.365377 -0.520846,0.491402 -1.120177,0.488262 C 9.861959,13.828423 9.6973845,13.801273 9.5423435,13.7194 Z M 13.638383,10.908428 C 13.419429,10.810698 13.193244,10.565108 13.08621,10.308875 13.01342,10.134622 13,9.7752005 13,8 c 0,-2.094067 5e-4,-2.103478 0.129211,-2.3471515 0.08486,-0.1606821 0.221503,-0.3018151 0.398106,-0.4111906 0.245132,-0.151818 0.310979,-0.1663615 0.745096,-0.1645765 0.519069,0.0021 0.698431,0.065734 0.958984,0.340033 0.315394,0.3320356 0.322137,0.3870411 0.322137,2.6278816 0,2.208612 -0.0098,2.295019 -0.294086,2.599814 -0.236003,0.253013 -0.49755,0.342476 -0.994348,0.340131 -0.259729,-0.0012 -0.532725,-0.03456 -0.626717,-0.07651 z" />
</svg>
