<?xml version="1.0" encoding="UTF-8" standalone="no"?>
<!-- Created with Inkscape (http://www.inkscape.org/) -->

<svg
   xmlns:dc="http://purl.org/dc/elements/1.1/"
   xmlns:cc="http://creativecommons.org/ns#"
   xmlns:rdf="http://www.w3.org/1999/02/22-rdf-syntax-ns#"
   xmlns:svg="http://www.w3.org/2000/svg"
   xmlns="http://www.w3.org/2000/svg"
   xmlns:sodipodi="http://sodipodi.sourceforge.net/DTD/sodipodi-0.dtd"
   xmlns:inkscape="http://www.inkscape.org/namespaces/inkscape"
   id="svg3336"
   version="1.1"
   inkscape:version="0.91 r"
   width="32"
   height="32"
   viewBox="0 0 32 32"
   sodipodi:docname="minhateca.svg">
  <metadata
     id="metadata3342">
    <rdf:RDF>
      <cc:Work
         rdf:about="">
        <dc:format>image/svg+xml</dc:format>
        <dc:type
           rdf:resource="http://purl.org/dc/dcmitype/StillImage" />
        <dc:title></dc:title>
      </cc:Work>
    </rdf:RDF>
  </metadata>
  <defs
     id="defs3340" />
  <sodipodi:namedview
     pagecolor="#ffffff"
     bordercolor="#666666"
     borderopacity="1"
     objecttolerance="10"
     gridtolerance="10"
     guidetolerance="10"
     inkscape:pageopacity="0"
     inkscape:pageshadow="2"
     inkscape:window-width="1366"
     inkscape:window-height="715"
     id="namedview3338"
     showgrid="false"
     fit-margin-top="0"
     fit-margin-left="0"
     fit-margin-right="0"
     fit-margin-bottom="0"
     inkscape:snap-bbox="true"
     inkscape:bbox-paths="true"
     inkscape:bbox-nodes="true"
     inkscape:snap-bbox-edge-midpoints="true"
     inkscape:snap-bbox-midpoints="true"
     inkscape:snap-page="true"
     inkscape:zoom="17"
     inkscape:cx="16"
     inkscape:cy="16"
     inkscape:window-x="0"
     inkscape:window-y="26"
     inkscape:window-maximized="1"
     inkscape:current-layer="svg3336" />
  <path
     style="fill:#f9f9f9"
     d="M 2.8771885,22.776048 C 2.0165321,18.246607 1.0126042,12.975132 0.6462383,11.061656 0.27987174,9.1481798 -0.01079659,7.572125 3.0788502e-4,7.5593094 0.01856463,7.5382412 3.1143196,8.4512203 12.986609,11.389146 l 3.357685,0.999223 4.863946,-2.8276472 c 2.675171,-1.5552056 4.886994,-2.827647 4.915164,-2.827647 0.02818,0 0.05121,0.8832907 0.05121,1.962865 l 0,1.9628662 -0.707944,0.411206 c -0.389371,0.226165 -2.510296,1.451919 -4.713169,2.723903 L 16.748279,16.106609 15.81811,15.824477 C 9.1568724,13.804046 4.3882247,12.3918 4.351431,12.428593 c -0.048391,0.04839 0.040052,0.53329 1.6653984,9.130748 0.5699392,3.014763 1.0608595,5.505993 1.0909333,5.536067 0.030073,0.03007 4.8876513,-0.798162 10.7946163,-1.840524 l 10.739938,-1.895203 0,-9.506696 0,-9.5066975 -10.801224,0 -10.8012257,0 -0.022138,1.395665 C 7.0012811,6.7788848 6.9700872,7.1373459 6.8963675,7.1365684 6.8417934,7.1359857 6.1053784,6.9410172 5.2598893,6.703289 L 3.7226363,6.2710603 3.7013037,3.6298317 3.679971,0.9886032 l 14.160015,0 14.160014,0 0,12.5747738 0,12.574775 -0.222497,0.04625 c -0.122373,0.02545 -6.229921,1.103065 -13.572327,2.394709 -7.342404,1.291645 -13.4428262,2.367307 -13.5564923,2.390362 l -0.206665,0.04192 -1.564831,-8.235346 z"
     id="path3346"
     inkscape:connector-curvature="0" />
</svg>
