<?xml version="1.0" encoding="UTF-8" standalone="no"?>
<!-- Generator: Adobe Illustrator 19.1.0, SVG Export Plug-In . SVG Version: 6.00 Build 0)  -->

<svg
   xmlns:dc="http://purl.org/dc/elements/1.1/"
   xmlns:cc="http://creativecommons.org/ns#"
   xmlns:rdf="http://www.w3.org/1999/02/22-rdf-syntax-ns#"
   xmlns:svg="http://www.w3.org/2000/svg"
   xmlns="http://www.w3.org/2000/svg"
   xmlns:sodipodi="http://sodipodi.sourceforge.net/DTD/sodipodi-0.dtd"
   xmlns:inkscape="http://www.inkscape.org/namespaces/inkscape"
   version="1.1"
   id="Layer_1"
   x="0px"
   y="0px"
   viewBox="0 0 31.999999 31.999999"
   xml:space="preserve"
   inkscape:version="0.91 r"
   sodipodi:docname="waffleio.svg"
   width="32"
   height="32"><metadata
     id="metadata27"><rdf:RDF><cc:Work
         rdf:about=""><dc:format>image/svg+xml</dc:format><dc:type
           rdf:resource="http://purl.org/dc/dcmitype/StillImage" /><dc:title></dc:title></cc:Work></rdf:RDF></metadata><defs
     id="defs25" /><sodipodi:namedview
     pagecolor="#ffffff"
     bordercolor="#666666"
     borderopacity="1"
     objecttolerance="10"
     gridtolerance="10"
     guidetolerance="10"
     inkscape:pageopacity="0"
     inkscape:pageshadow="2"
     inkscape:window-width="1366"
     inkscape:window-height="715"
     id="namedview23"
     showgrid="false"
     inkscape:snap-page="true"
     inkscape:snap-bbox="true"
     inkscape:bbox-paths="true"
     inkscape:bbox-nodes="true"
     inkscape:snap-bbox-edge-midpoints="true"
     inkscape:snap-bbox-midpoints="true"
     inkscape:zoom="17"
     inkscape:cx="16"
     inkscape:cy="16"
     inkscape:window-x="0"
     inkscape:window-y="26"
     inkscape:window-maximized="1"
     inkscape:current-layer="Layer_1" /><style
     type="text/css"
     id="style3">
	.st0{fill:none;stroke:#000000;stroke-width:40;stroke-miterlimit:10;}
</style><path
     style="color:#000000;font-style:normal;font-variant:normal;font-weight:normal;font-stretch:normal;font-size:medium;line-height:normal;font-family:sans-serif;text-indent:0;text-align:start;text-decoration:none;text-decoration-line:none;text-decoration-style:solid;text-decoration-color:#000000;letter-spacing:normal;word-spacing:normal;text-transform:none;direction:ltr;block-progression:tb;writing-mode:lr-tb;baseline-shift:baseline;text-anchor:start;white-space:normal;clip-rule:nonzero;display:inline;overflow:visible;visibility:visible;opacity:1;isolation:auto;mix-blend-mode:normal;color-interpolation:sRGB;color-interpolation-filters:linearRGB;solid-color:#000000;solid-opacity:1;fill:#f9f9f9;fill-opacity:1;fill-rule:nonzero;stroke:none;stroke-width:40;stroke-linecap:butt;stroke-linejoin:miter;stroke-miterlimit:10;stroke-dasharray:none;stroke-dashoffset:0;stroke-opacity:1;color-rendering:auto;image-rendering:auto;shape-rendering:auto;text-rendering:auto;enable-background:accumulate"
     d="M 16.000102,0 0,15.999998 16.000102,31.999996 32.000099,15.999998 31.255017,15.254913 16.000102,0 Z m 0,2.9802292 2.137394,2.137394 -2.13441,2.1344102 -2.137085,-2.1378055 2.134101,-2.1339987 z m -3.624166,3.6240622 2.136983,2.1379089 -2.139246,2.1392467 -2.137395,-2.137395 2.139658,-2.1397606 z m 7.251727,0.0035 2.137085,2.137188 -2.135028,2.1350278 -2.136776,-2.1374971 2.134719,-2.1347187 z m -3.624783,3.6247828 2.136674,2.1376 -2.138629,2.138629 -2.137086,-2.137189 2.139041,-2.13904 z m -7.2567681,0.0015 2.1373941,2.137394 -2.1391437,2.139246 -2.1378055,-2.136982 2.1395551,-2.139658 z m 14.5088021,9.4e-4 2.139864,2.139761 -2.135749,2.135748 -2.139452,-2.140173 2.135337,-2.135336 z m -3.625503,3.6254 2.139455,2.140276 -2.138013,2.138012 -2.139864,-2.139864 2.138422,-2.138424 z m -7.255738,0.0012 2.137188,2.137188 -2.138629,2.138628 -2.137497,-2.136777 2.138938,-2.139039 z m -7.2572831,0.0021 2.1378062,2.136982 -2.1364687,2.136467 -2.137394,-2.137394 2.1360565,-2.136058 z m 21.7683491,9.09e-4 2.135131,2.135028 -2.136365,2.136364 -2.134718,-2.13544 2.135952,-2.135952 z m -10.883814,3.623958 2.139864,2.139864 -2.137909,2.137909 -2.140276,-2.139452 2.138321,-2.138321 z m -7.2563566,0.0018 2.1375996,2.136673 -2.1371881,2.137188 -2.1370856,-2.137188 2.1366741,-2.136673 z m 14.5140516,2.12e-4 2.134719,2.135437 -2.137291,2.137291 -2.135131,-2.135028 2.137703,-2.1377 z m -10.886079,3.626322 2.140172,2.139451 -2.137806,2.137807 -2.13976,-2.139864 2.137394,-2.137394 z m 7.258312,0.0015 2.135131,2.135131 -2.137291,2.137188 -2.135544,-2.134616 2.137704,-2.137703 z m -3.627767,3.627767 2.135439,2.134718 -2.138423,2.138425 -2.135131,-2.135028 2.138115,-2.138115 z"
     id="line21"
     inkscape:connector-curvature="0" /></svg>